<?xml version="1.0" encoding="utf-8"?>
<!-- Generator: Adobe Illustrator 19.1.0, SVG Export Plug-In . SVG Version: 6.00 Build 0)  -->
<svg version="1.1" id="Ebene_1" xmlns="http://www.w3.org/2000/svg" xmlns:xlink="http://www.w3.org/1999/xlink" x="0px" y="0px"
	 viewBox="0 0 496.1 609.4" style="enable-background:new 0 0 496.1 609.4;" xml:space="preserve">
<style type="text/css">
	.st0{fill-rule:evenodd;clip-rule:evenodd;fill:#34495F;}
</style>
<g>
	<path class="st0" d="M273.7,53c40-52.8,95.6-53,95.6-53s8.3,49.6-31.5,97.4c-42.4,51-90.6,42.7-90.6,42.7S238.2,100,273.7,53z"/>
	<path class="st0" d="M252.3,174.9c20.6,0,58.7-28.3,108.4-28.3c85.5,0,119.2,61,119.2,61s-65.8,33.7-65.8,115.5
		c0,92.2,82,124,82,124s-57.3,161.5-134.7,161.5c-35.6,0-63.2-24-100.6-24c-38.2,0-76.1,24.9-100.7,24.9C89.3,609.4,0,456.2,0,333
		c0-121.2,75.6-184.8,146.5-184.8C192.6,148.2,228.3,174.9,252.3,174.9z"/>
</g>
</svg>
