<?xml version="1.0" encoding="utf-8"?>
<!-- Generator: Adobe Illustrator 19.1.0, SVG Export Plug-In . SVG Version: 6.00 Build 0)  -->
<svg version="1.1" id="レイヤー_2" xmlns="http://www.w3.org/2000/svg" xmlns:xlink="http://www.w3.org/1999/xlink" x="0px"
	 y="0px" viewBox="0 0 612 727" style="enable-background:new 0 0 612 727;" xml:space="preserve">
<style type="text/css">
	.st0{fill:#1AAF5D;}
</style>
<g>
	<path class="st0" d="M44.5,236C19.9,236,0,255.9,0,280.4h0v75.5v35.5v75.5h0c0,24.5,19.9,44.4,44.5,44.4
		c24.5,0,44.4-19.9,44.5-44.4h0v-75.5v-35.5v-75.5h0C88.9,255.9,69,236,44.5,236z"/>
	<path class="st0" d="M567.5,236c-24.5,0-44.4,19.9-44.5,44.4h0v75.5v35.5v75.5h0c0,24.5,19.9,44.4,44.5,44.4
		c24.5,0,44.4-19.9,44.5-44.4v-75.5v-35.5v-75.5C612,255.9,592.1,236,567.5,236z"/>
	<path class="st0" d="M107,243.7h-2.2v292.5c0,24.4,20,44.4,44.5,44.4h37.5v26.5v75.5h0c0,24.5,19.9,44.4,44.5,44.4
		c24.5,0,44.4-19.9,44.5-44.4v-75.5v-26.5h60.7v26.5v75.5c0,24.5,19.9,44.4,44.5,44.4c24.5,0,44.4-19.9,44.5-44.4v-75.5v-26.5h37.5
		c24.5,0,44.5-20,44.5-44.4V243.7h-0.7H107z"/>
	<path class="st0" d="M504,188.9c-11-52-47.4-96.1-97.3-121.7l30.7-56.5c1.9-3.5,0.6-7.9-2.9-9.8c-3.5-1.9-7.9-0.6-9.8,2.9L393.7,61
		c-26.4-11.3-56-17.7-87.3-17.7c-31.5,0-61.4,6.4-87.9,17.9L187.2,3.8c-1.9-3.5-6.3-4.8-9.8-2.9c-3.5,1.9-4.8,6.3-2.9,9.8l30.9,56.8
		c-47.6,24.6-82.7,66-95.2,115.1c-3.2,12.7-5,26-5,39.6c0,2,0.1,4.1,0.1,6.1h401.5v-21.4C506.2,200.8,505.3,194.8,504,188.9z
		 M214.5,157.2c-10.4,0-18.9-8.4-18.9-18.9c0-10.4,8.5-18.9,18.9-18.9c10.4,0,18.9,8.4,18.9,18.9
		C233.4,148.8,224.9,157.2,214.5,157.2z M397.5,157.2c-10.4,0-18.9-8.4-18.9-18.9c0-10.4,8.5-18.9,18.9-18.9
		c10.4,0,18.9,8.4,18.9,18.9C416.4,148.8,407.9,157.2,397.5,157.2z"/>
</g>
</svg>
